<?xml version="1.0" encoding="utf-8"?><!-- Uploaded to: SVG Repo, www.svgrepo.com, Generator: SVG Repo Mixer Tools -->
<svg fill="#000000" width="800px" height="800px" viewBox="0 0 16 16" xmlns="http://www.w3.org/2000/svg">
<path d="m9 4.45-2 2-2-2-1 1 2 2-2 2 1 1 2-2 2 2 1-1-2-2 2-2zm2.77 6.63c.77-1.01 1.23-2.27 1.23-3.63 0-3.31-2.69-6-6-6s-6 2.69-6 6 2.69 6 6 6c1.37 0 2.63-.46 3.64-1.24l2.79 2.79 1.13-1.13zm-4.87.76c-2.48 0-4.49-2.02-4.49-4.5s2.02-4.5 4.49-4.5 4.5 2.02 4.5 4.5-2.03 4.5-4.5 4.5z"/>
</svg>